<?xml version="1.0" encoding="UTF-8"?>
<svg viewBox="0 0 166 44" version="1.1" xmlns="http://www.w3.org/2000/svg" xmlns:xlink="http://www.w3.org/1999/xlink">
    <title>8BA766B0-3E31-415B-A2A6-A050176F1D26</title>
    <g id="Page-1" stroke="none" stroke-width="1" fill="none" fill-rule="evenodd">
        <g id="Regulator---homepage---concept-FINAL" transform="translate(-1536, -18479)" fill="currentColor" fill-rule="nonzero">
            <g id="footer" transform="translate(73, 17897)">
                <g id="garmin-logo" transform="translate(1463, 582)">
                    <path d="M75.2517254,33.8099063 C75.2517254,33.8099063 77.6033418,33.103079 78.7490011,32.1017403 C79.8946604,31.1004016 80.4373411,29.686747 80.4373411,27.8018742 C80.4373411,26.5649264 80.1961497,25.5635877 79.7740647,24.7389558 C79.3519797,23.914324 78.6887032,23.2074967 77.9048311,22.6773762 C77.120959,22.1472557 76.0958954,21.793842 75.010534,21.4993307 C73.8648747,21.2637216 72.3574283,21.2048193 72.3574283,21.2048193 C71.7544497,21.2048193 70.7293861,21.145917 70.1264076,21.145917 L58.7301126,21.145917 C58.127134,21.145917 57.5844533,21.6171352 57.5844533,22.2650602 L57.5844533,42.5274431 C57.5844533,43.1164659 58.0668362,43.5287818 58.7301126,43.5287818 L61.4435162,43.5287818 C62.0464947,43.5287818 62.5891754,43.1164659 62.5891754,42.5274431 C62.5891754,42.5274431 62.5891754,34.4578313 62.5891754,34.4578313 C62.5891754,34.4578313 62.5891754,34.4578313 62.5891754,34.4578313 C62.5891754,34.4578313 67.7144933,34.4578313 67.7144933,34.4578313 C68.3174718,34.4578313 69.1616418,34.8701473 69.523429,35.3413655 L74.8296404,42.6452477 C75.3120232,43.2931727 75.7944061,43.5287818 76.3973847,43.5287818 L79.8946604,43.5287818 C80.4976389,43.5287818 80.6182347,42.939759 80.3770432,42.6452477 C80.1358518,42.3507363 74.8899382,34.9879518 74.8899382,34.9879518 C74.4678533,34.5167336 74.7090447,33.9866131 75.2517254,33.8099063 Z M74.3472575,30.2757697 C73.9251725,30.5702811 73.3824918,30.8058902 72.7192154,30.9236948 C71.9956411,31.1004016 71.211769,31.1004016 71.211769,31.1004016 C70.6087904,31.1004016 69.5837268,31.1593039 68.9807483,31.1593039 L63.7348347,31.1593039 C63.1318562,31.1593039 62.5891754,30.6880857 62.5891754,30.0401606 L62.5891754,25.9170013 C62.5891754,25.3279786 63.0715583,24.7978581 63.7348347,24.7978581 L68.9807483,24.7978581 C69.5837268,24.7978581 70.6087904,24.7978581 71.211769,24.8567604 C71.211769,24.8567604 71.9956411,24.9156627 72.7192154,25.0334672 C73.4427897,25.210174 73.9854704,25.3868809 74.3472575,25.6813922 C74.7693425,25.9759036 75.0708318,26.3293173 75.1914275,26.6827309 C75.3723211,27.0950469 75.432619,27.5073628 75.432619,27.9196787 C75.432619,28.3908969 75.3723211,28.8032129 75.1914275,29.1566265 C75.0708318,29.6278447 74.7693425,29.9812584 74.3472575,30.2757697 Z M43.2938612,22.1472557 C42.992372,21.6171352 42.2687977,21.145917 41.6658191,21.145917 L40.3995641,21.145917 C39.7965855,21.145917 39.0730113,21.6171352 38.771522,22.1472557 L28.7620777,42.6452477 C28.4605884,43.1753681 28.7620777,43.5876841 29.4253542,43.5876841 L31.7166727,43.5876841 C32.6211406,43.5876841 33.0432256,43.1753681 33.284417,42.7041499 C33.5256084,42.2329317 34.0682891,41.1137885 34.1888849,40.8781794 C34.3094806,40.583668 34.7918634,40.4069612 35.394842,40.4069612 L46.1881584,40.4069612 C46.7911369,40.4069612 47.2132219,40.5247657 47.3941155,40.8781794 C47.5147112,41.1137885 48.0573919,42.0562249 48.3588812,42.6452477 C48.6603705,43.1753681 49.0824555,43.5876841 49.9869234,43.5876841 L53.3636033,43.5876841 C53.9665819,43.5876841 54.2680712,43.1164659 54.0268798,42.7041499 C53.7856883,42.2329317 43.2938612,22.1472557 43.2938612,22.1472557 Z M44.3792227,37.2262383 L36.9625863,37.2262383 C36.3596077,37.2262383 36.0581184,36.7550201 36.2993098,36.2248996 L40.2186705,27.978581 C40.459862,27.4484605 40.881947,27.4484605 41.1834363,27.978581 L45.0424991,36.2248996 C45.2836905,36.7550201 44.9822012,37.2262383 44.3792227,37.2262383 Z M157.799491,22.2650602 L157.799491,42.4096386 C157.799491,42.9986613 157.317109,43.5287818 156.653832,43.5287818 L154.784599,43.5287818 C153.819833,43.5287818 153.277152,43.1753681 152.855067,42.7630522 L138.98656,28.6854083 C138.564475,28.2730924 138.202688,28.3908969 138.202688,28.9799197 C138.202688,28.9799197 138.202688,42.3507363 138.202688,42.6452477 C138.202688,43.1753681 137.780603,43.5287818 137.177624,43.5287818 L134.645114,43.5287818 C134.042136,43.5287818 133.620051,43.1164659 133.620051,42.7041499 L133.620051,22.0294511 C133.620051,21.6171352 133.981838,21.2048193 134.76571,21.2048193 L137.237922,21.2048193 C138.082092,21.2048193 138.745369,21.5582329 139.167454,21.9705489 L152.49328,35.45917 C152.915365,35.8714859 153.277152,35.7536814 153.277152,35.1646586 C153.277152,35.1646586 153.277152,22.5006693 153.277152,22.206158 C153.277152,21.6171352 153.759535,21.2048193 154.422811,21.2048193 L156.71413,21.2048193 C157.317109,21.2048193 157.799491,21.6760375 157.799491,22.2650602 Z M125.721032,22.2650602 L125.721032,42.5274431 C125.721032,43.1164659 125.238649,43.5287818 124.575372,43.5287818 L121.861969,43.5287818 C121.25899,43.5287818 120.716309,43.1164659 120.716309,42.5863454 L120.716309,22.3239625 C120.716309,21.5582329 121.198692,21.2048193 121.861969,21.2048193 L124.695968,21.2048193 C125.359244,21.2048193 125.721032,21.6760375 125.721032,22.2650602 Z M113.058482,22.2650602 L113.058482,42.4096386 C113.058482,43.2342704 112.576099,43.5287818 111.912822,43.5287818 L109.380312,43.5287818 C108.777334,43.5287818 108.294951,43.1164659 108.294951,42.5863454 C108.294951,42.1740295 108.294951,27.9196787 108.294951,27.9196787 C108.294951,27.9196787 100.094442,42.5863454 100.094442,42.5863454 C99.7929531,43.1164659 99.0693789,43.1164659 98.7678896,42.5863454 C98.7678896,42.5863454 90.6879768,27.8607764 90.6276789,27.8607764 C90.6276789,27.8607764 90.567381,42.291834 90.567381,42.5863454 C90.567381,43.1753681 90.145296,43.5287818 89.4820196,43.5287818 L87.3112968,43.5287818 C86.5877225,43.5287818 86.1656375,43.1164659 86.1656375,42.5274431 L86.1656375,22.2650602 C86.1656375,21.6760375 86.6480203,21.145917 87.3112968,21.145917 L90.8085725,21.145917 C91.5924446,21.145917 92.1351253,21.6171352 92.4366146,22.1472557 L98.9487831,33.8099063 C99.2502724,34.3400268 99.7326553,34.3400268 100.034145,33.8099063 L106.847802,22.1472557 C107.149292,21.6171352 107.691972,21.2048193 108.536142,21.2048193 L111.912822,21.2048193 C112.576099,21.2048193 113.058482,21.6760375 113.058482,22.2650602 Z M25.686887,32.3962517 L25.686887,39.935743 C25.686887,40.9370817 25.0839085,41.4672021 24.6618235,41.7028112 C24.5412278,41.7617135 21.3454413,43.7643909 13.7479114,43.7643909 C11.4565928,43.7643909 0,43.2342704 0,32.2784471 C0,31.1004016 0.361787141,20.6746988 13.7479114,20.6746988 C20.0188885,20.6746988 24.0588449,22.7951807 24.0588449,22.854083 C24.7824192,23.3253012 24.9030149,23.914324 24.6015256,24.5033467 C24.6015256,24.5033467 23.8779513,25.9170013 23.8779513,25.9170013 C23.5161642,26.6238286 22.7925899,26.8594378 22.1293135,26.5060241 C22.0690156,26.5060241 18.3305485,24.2088353 12.5419542,24.6800535 C5.42680712,25.2690763 5.06501998,31.1593039 5.06501998,32.3373494 C5.06501998,33.751004 5.48710498,38.4042838 11.2756992,39.7590361 C15.2553578,40.7014726 20.2600799,39.2878179 21.3454413,38.8165997 C21.3454413,38.5809906 21.3454413,35.2824632 21.3454413,35.2824632 C21.3454413,34.7523427 20.9233563,34.3400268 20.3806756,34.3400268 L14.8332728,34.3400268 C14.1096985,34.3400268 13.6273157,33.751004 13.6273157,33.103079 L13.6273157,32.3373494 C13.6273157,31.6305221 14.1096985,31.1004016 14.8332728,31.1004016 L24.3603342,31.1004016 C25.0839085,31.1593039 25.686887,31.7483266 25.686887,32.3962517 Z M136.815837,14.8433735 C136.514348,14.3721553 136.514348,13.8420348 136.815837,13.3708166 L144.292772,0.706827309 C144.594261,0.235609103 145.016346,0 145.559027,0 C146.101707,0 146.58409,0.294511379 146.825282,0.706827309 L154.302216,13.3708166 C154.603705,13.8420348 154.603705,14.3721553 154.302216,14.8433735 C154.000726,15.3145917 153.578641,15.5502008 153.035961,15.5502008 L138.021794,15.5502008 C137.539412,15.6091031 137.117327,15.3145917 136.815837,14.8433735 Z M164.613149,40.8192771 C164.613149,40.2302544 164.251362,39.9946452 163.588086,39.9946452 L162.442426,39.9946452 L162.442426,42.9986613 L162.924809,42.9986613 L162.924809,41.7028112 L163.346894,41.7028112 L164.191064,42.9986613 L164.733745,42.9986613 L163.889575,41.7028112 C164.31166,41.643909 164.613149,41.2904953 164.613149,40.8192771 Z M162.924809,41.231593 L162.924809,40.3480589 L163.527788,40.3480589 C163.829277,40.3480589 164.130766,40.4658635 164.130766,40.7603748 C164.130766,41.1726908 163.889575,41.231593 163.527788,41.231593 L162.924809,41.231593 Z M163.407192,38.9344043 C161.960044,38.9344043 160.814384,40.0535475 160.814384,41.4672021 C160.814384,42.8808568 161.960044,44 163.407192,44 C164.854341,44 166,42.8808568 166,41.4672021 C166,40.0535475 164.854341,38.9344043 163.407192,38.9344043 Z M163.407192,43.6465863 C162.201235,43.6465863 161.296767,42.7041499 161.296767,41.4672021 C161.296767,40.2302544 162.201235,39.2878179 163.407192,39.2878179 C164.613149,39.2878179 165.517617,40.2302544 165.517617,41.4672021 C165.517617,42.7041499 164.613149,43.6465863 163.407192,43.6465863 Z" id="Shape"></path>
                </g>
            </g>
        </g>
    </g>
</svg>