<?xml version="1.0" encoding="UTF-8"?>
<svg  viewBox="0 0 24 20" version="1.1" xmlns="http://www.w3.org/2000/svg" xmlns:xlink="http://www.w3.org/1999/xlink">
    <g id="Page-1" stroke="none" stroke-width="1" fill="none" fill-rule="evenodd">
        <g id="Regulator---homepage---concept-FINAL" transform="translate(-844, -1038)" fill="currentColor" fill-rule="nonzero">
            <g id="main-CTAs" transform="translate(495, 1012)">
                <g id="icon-brochure" transform="translate(349, 26)">
                    <path d="M3.9,6 L8.9,6 L8.9,8 L3.9,8 L3.9,6 Z M3.9,12 L8.9,12 L8.9,10 L3.9,10 L3.9,12 Z M14.9,8 L19.9,8 L19.9,6 L14.9,6 L14.9,8 Z M14.9,12 L19.9,12 L19.9,10 L14.9,10 L14.9,12 Z M23.9,0 L23.9,18 L14.9,18 C14,18 13.2,18.4 12.7,19 C12.7,19 12.6,19.1 12.6,19.1 C12.2,19.5 11.6,19.4 11.2,19 C10.6,18.4 9.8,18 9,18 L0,18 L0,0 L9,0 C10.2,0 11.3,0.5 12,1.4 C12.7,0.6 13.8,0 15,0 L23.9,0 Z M21.9,2 L14.9,2 C13.8,2 12.9,2.9 12.9,4 L12.9,12 C12.9,12.5 12.4,13 11.9,13 C11.4,13 10.9,12.5 10.9,12 L10.9,4 C10.9,2.9 10,2 8.9,2 L1.9,2 L1.9,16 L8.9,16 C10,16 11,16.4 11.9,17 C12.8,16.4 13.8,16 14.9,16 L21.9,16 L21.9,2 Z" id="Shape"></path>
                </g>
            </g>
        </g>
    </g>
</svg>