<?xml version="1.0" encoding="UTF-8"?>
<svg viewBox="0 0 19 25" version="1.1" xmlns="http://www.w3.org/2000/svg" xmlns:xlink="http://www.w3.org/1999/xlink">
    <g id="Page-1" stroke="none" stroke-width="1" fill="none" fill-rule="evenodd">
        <g id="Regulator---homepage---concept-FINAL" transform="translate(-563, -1035)" fill="currentColor" fill-rule="nonzero">
            <g id="main-CTAs" transform="translate(495, 1012)">
                <g id="icon-anchor" transform="translate(68, 23)">
                    <path d="M18.9691419,18.0010413 L18.9691419,18.0010413 C18.9197493,17.8010711 18.8456605,17.6260971 18.7962679,17.4261269 C18.7468754,17.2761492 18.6974828,17.1511678 18.6480903,17.0011901 C18.5493052,16.7012347 18.4752163,16.4012793 18.3764312,16.101324 L18.1541647,15.3514355 C18.0553796,15.0264839 17.9565945,14.7015322 17.8578094,14.4015769 C17.7837206,14.2016066 17.6355429,14.0516289 17.4379727,14.0016364 C17.3391876,13.9766401 17.018136,13.9266475 16.8205658,14.151614 C16.6229956,14.4015769 16.4501217,14.6515397 16.2772477,14.9015025 L16.1537664,15.0764764 C16.0549813,15.2014578 15.9808924,15.3264392 15.8821073,15.4514207 C15.8327148,15.5264095 15.7586259,15.6263946 15.7092334,15.7013835 C15.6598408,15.7763723 15.585752,15.8763574 15.5363595,15.9513463 L15.2893967,16.2513016 C15.1659153,16.4262756 15.0424339,16.6012496 14.9189526,16.7762235 C14.8448637,16.8762087 14.7707749,17.0011901 14.6966861,17.1011752 C14.6225972,17.2261566 14.5238121,17.3261417 14.4497233,17.4511231 C14.4003308,17.526112 14.2521531,17.7010859 14.3756345,17.9510488 C14.5238121,18.2510041 14.7707749,18.2760004 14.9189526,18.2510041 C14.9436488,18.2510041 14.9683451,18.2510041 14.9930414,18.2510041 C15.0424339,18.2510041 15.0671302,18.2510041 15.1165228,18.2260078 C15.2153079,18.2010116 15.314093,18.1760153 15.4128781,18.1760153 C15.4622706,18.1760153 15.5116632,18.151019 15.5363595,18.151019 C15.5116632,18.3009967 15.4622706,18.4259781 15.4128781,18.5509595 C15.3387893,18.7509297 15.2400041,18.9758963 15.0918265,19.2258591 C14.9683451,19.4508256 14.8448637,19.7007884 14.6719898,19.925755 C14.4003308,20.3256955 14.1286717,20.6256508 13.8570127,20.8756136 C13.6594425,21.0505876 13.4618723,21.2505578 13.2149095,21.4255318 C13.0173393,21.5755095 12.8197691,21.7004909 12.5728063,21.8504686 C12.3999324,21.9504537 12.2023622,22.0504388 11.9307031,22.1754202 C11.831918,22.2254128 11.7331329,22.2504091 11.6343478,22.2754054 C11.5849553,22.3004017 11.5108664,22.3253979 11.4614739,22.3253979 C11.1651186,22.4253831 10.8934595,22.5003719 10.6464968,22.5253682 C10.6464968,22.3503942 10.6464968,22.2004165 10.6464968,22.0254426 L10.6464968,9.97723511 L12.3505398,9.97723511 C12.5234138,9.97723511 12.7456802,9.95223883 12.9432505,9.87724999 C13.2889983,9.7272723 13.5112648,9.45231321 13.6100499,9.07736899 C13.6841387,8.75241734 13.6100499,8.40246941 13.3877834,8.12751032 C13.1655169,7.85255122 12.8444654,7.70257354 12.4987175,7.70257354 C12.4987175,7.70257354 12.4987175,7.70257354 12.4987175,7.70257354 C12.1282733,7.70257354 11.7825255,7.70257354 11.4120813,7.70257354 L10.9428521,7.70257354 L10.8193707,7.70257354 C10.7699781,7.70257354 10.6958893,7.70257354 10.6464968,7.70257354 C10.6464968,7.20264792 10.6464968,6.67772602 10.6464968,6.1778004 C10.7699781,6.12780783 10.8934595,6.05281899 11.0169409,6.00282643 C11.2639037,5.87784502 11.5108664,5.70287106 11.7331329,5.47790453 C12.1035771,5.10296031 12.3505398,4.70301982 12.4987175,4.25308676 C12.6221989,3.87814254 12.6962877,3.52819461 12.6715914,3.20324296 C12.6715914,2.77830618 12.5975026,2.42835824 12.4740212,2.12840287 L12.4246287,2.00342147 C12.3505398,1.80345122 12.2517547,1.60348097 12.1282733,1.428507 C11.9553994,1.20354047 11.7578292,0.978573946 11.5355627,0.753607416 C11.3379925,0.578633449 11.115726,0.428655763 10.8687633,0.303674358 C10.7205856,0.228685515 10.5477117,0.178692953 10.399534,0.153696672 C10.3254452,0.128700391 10.2760526,0.128700391 10.2019638,0.10370411 C9.55986061,-0.096266138 8.96714999,0.0287152671 8.52261701,0.178692953 C8.37443936,0.228685515 8.25095797,0.278678077 8.15217287,0.328670639 C7.95460266,0.428655763 7.75703245,0.553637168 7.55946224,0.703614854 C7.38658831,0.82859626 7.23841065,0.978573946 7.09023299,1.17854419 C6.84327023,1.47849957 6.69509257,1.72846238 6.62100374,2.00342147 L6.57161119,2.15339915 C6.49752236,2.3533694 6.44812981,2.55333965 6.42343353,2.7533099 C6.39873726,2.97827643 6.39873726,3.17824667 6.39873726,3.4032132 L6.39873726,3.57818717 C6.39873726,3.72816486 6.42343353,3.85314626 6.44812981,3.95313139 C6.49752236,4.15310163 6.57161119,4.35307188 6.6703963,4.55304213 C6.79387768,4.80300494 6.89266278,5.00297519 7.01614416,5.17794916 C7.16432182,5.3779194 7.33719575,5.55289337 7.48537341,5.67787478 C7.75703245,5.92783759 8.02869149,6.10281155 8.3250468,6.20279668 C8.37443936,6.22779296 8.39913563,6.22779296 8.39913563,6.22779296 C8.39913563,6.22779296 8.39913563,6.25278924 8.39913563,6.32777808 L8.39913563,7.77756238 C8.39913563,7.77756238 8.37443936,7.77756238 8.37443936,7.77756238 L7.85581756,7.77756238 C7.46067714,7.77756238 7.04084044,7.77756238 6.64570002,7.77756238 C6.64570002,7.77756238 6.62100374,7.77756238 6.62100374,7.77756238 C6.17647077,7.77756238 5.85541918,7.95253635 5.60845642,8.30248428 C5.38618993,8.62743594 5.36149366,9.10236528 5.55906387,9.45231321 C5.78133035,9.85225371 6.1517745,10.052224 6.62100374,10.052224 C7.21371437,10.052224 7.806425,10.052224 8.39913563,10.052224 L8.39913563,22.2504091 L8.39913563,22.6253533 L8.27565425,22.600357 C8.12747659,22.5753607 7.97929894,22.5253682 7.85581756,22.5003719 C7.68294362,22.4503793 7.51006969,22.4003868 7.33719575,22.3503942 C7.11492927,22.2504091 6.89266278,22.150424 6.6703963,22.0254426 C6.42343353,21.9004612 6.17647077,21.7504835 5.92950801,21.5755095 C5.53436759,21.3005504 5.23801228,21.0255913 4.99104951,20.7756285 L4.94165696,20.7256359 C4.71939047,20.4506769 4.47242771,20.200714 4.2748575,19.9007587 C4.02789474,19.5508107 3.85502081,19.2258591 3.73153943,18.9009074 C3.70684315,18.8509149 3.68214687,18.775926 3.6574506,18.7259335 C3.63275432,18.6759409 3.60805804,18.6009521 3.58336177,18.5509595 C3.55866549,18.4509744 3.50927294,18.3509893 3.48457666,18.2510041 C3.50927294,18.2510041 3.55866549,18.2760004 3.58336177,18.2760004 L3.6574506,18.3009967 C3.70684315,18.3009967 3.7562357,18.325993 3.80562825,18.325993 C3.90441336,18.3509893 4.00319846,18.3759855 4.10198357,18.3759855 C4.32425005,18.4009818 4.52182026,18.325993 4.62060537,18.151019 C4.71939047,17.9510488 4.71939047,17.7260822 4.59590909,17.5511083 C4.47242771,17.3761343 4.34894633,17.2011603 4.22546495,17.0261864 L2.59551072,14.7515248 C2.49672561,14.6015471 2.39794051,14.4765657 2.2991554,14.326588 C2.22506658,14.2266029 2.10158519,14.1266178 1.95340754,14.1016215 C1.45948201,14.0016364 1.28660808,14.3015917 1.1631267,14.6015471 C1.13843042,14.6515397 1.13843042,14.7015322 1.11373415,14.7765211 C1.11373415,14.8015173 1.08903787,14.8265136 1.08903787,14.8515099 C1.06434159,14.9264988 1.03964532,15.0014876 1.01494904,15.1014727 C0.965556488,15.2014578 0.940860212,15.3264392 0.916163936,15.4264244 C0.866771383,15.5764021 0.817378831,15.751376 0.767986278,15.92635 C0.718593726,16.1263202 0.669201173,16.3012942 0.595112345,16.5012645 C0.545719792,16.7012347 0.471630964,16.8762087 0.422238411,17.0761789 C0.372845859,17.2261566 0.323453306,17.3761343 0.274060754,17.5011157 C0.249364478,17.6260971 0.199971925,17.7260822 0.175275649,17.8510636 C0.125883096,18.0010413 0.076490544,18.151019 0.0270979916,18.3009967 C-0.0716871134,18.6009521 0.125883096,18.8009223 0.199971925,18.8759112 C0.348149582,19.0258888 0.619808621,19.0258888 0.792682555,18.9259037 C0.842075107,18.9009074 0.891467659,18.8759112 0.940860212,18.8259186 C0.990252764,18.8009223 1.01494904,18.775926 1.06434159,18.7509297 L1.11373415,18.7259335 C1.1631267,18.7009372 1.23721553,18.6509446 1.28660808,18.6259483 C1.28660808,18.6509446 1.28660808,18.6759409 1.31130436,18.6759409 C1.33600063,18.7509297 1.36069691,18.8009223 1.36069691,18.8759112 C1.45948201,19.2758516 1.60765967,19.6257996 1.75583733,19.9507512 C1.92871126,20.3506917 2.15097775,20.7256359 2.39794051,21.1255764 C2.66959955,21.5255169 2.96595486,21.9254574 3.31170273,22.3004017 C3.73153943,22.7503347 4.20076867,23.1502752 4.6946942,23.5002231 C5.11453089,23.8001785 5.46027876,24.0001488 5.80602663,24.1501264 L5.95420429,24.2251153 C6.02829311,24.2501116 6.10238194,24.3001041 6.17647077,24.3251004 L6.27525588,24.375093 C6.39873726,24.4250855 6.52221864,24.4750781 6.6703963,24.5250707 C6.84327023,24.6000595 7.06553672,24.6500521 7.2878032,24.7000446 C7.36189203,24.7250409 7.41128458,24.7250409 7.48537341,24.7500372 C7.7076399,24.8000298 7.92990638,24.8750186 8.15217287,24.9000149 C8.62140212,24.9500074 9.09063137,25 9.53516434,25 C9.73273455,25 9.90560848,25 10.1031787,24.9750037 C10.5971042,24.9250112 11.0416372,24.8500223 11.4367776,24.7750335 C11.4861702,24.7750335 11.5355627,24.7500372 11.560259,24.7500372 L11.6343478,24.7250409 C11.8072218,24.6750483 11.9800957,24.6250558 12.1529696,24.5500669 C12.3258436,24.5000744 12.4987175,24.4500818 12.6468951,24.375093 C12.7703765,24.3251004 12.8938579,24.2751079 12.992643,24.2251153 C13.1902132,24.1251302 13.4124797,24.0001488 13.6100499,23.9001636 L13.6594425,23.8751674 C13.881709,23.7501859 14.1286717,23.6002083 14.3509382,23.4502306 C14.5732047,23.2752566 14.86956,23.0752864 15.141219,22.8003273 C15.4128781,22.5503645 15.6845371,22.2504091 16.030285,21.8754649 C16.1784626,21.7004909 16.3266403,21.5005207 16.4501217,21.3255467 L16.5242105,21.2255616 C16.6476919,21.0505876 16.746477,20.9006099 16.8205658,20.7256359 C16.9440472,20.4756731 17.0675286,20.2757029 17.1416174,20.0757326 C17.2650988,19.8007735 17.3885802,19.5258145 17.4873653,19.2008628 C17.5367578,19.1008777 17.5614541,18.9758963 17.5861504,18.8509149 C17.6108467,18.775926 17.6108467,18.7259335 17.6355429,18.6509446 C17.6355429,18.6509446 17.6355429,18.6259483 17.6355429,18.6259483 C17.7096318,18.6759409 17.7590243,18.7009372 17.8331132,18.7509297 C17.9318983,18.8009223 18.0306834,18.8759112 18.1294685,18.9259037 C18.2776461,19.0258888 18.4752163,19.0258888 18.6480903,18.9259037 C18.7962679,18.8259186 18.895053,18.6759409 18.895053,18.5009669 C19.0185344,18.2510041 19.0185344,18.1260227 18.9691419,18.0010413 Z M10.4983191,3.15325039 C10.4983191,3.4032132 10.3748377,3.6781723 10.1772675,3.85314626 C10.0043936,4.02812023 9.7821271,4.10310907 9.58455689,4.10310907 L9.55986061,4.10310907 L9.53516434,4.10310907 C9.31289785,4.12810535 9.06593509,4.02812023 8.89306116,3.85314626 C8.72018722,3.6781723 8.59670584,3.42820948 8.59670584,3.17824667 C8.59670584,2.72831362 8.91775743,2.25338428 9.53516434,2.228388 C9.75743082,2.228388 9.97969731,2.30337684 10.1525712,2.50334709 C10.3748377,2.65332477 10.4983191,2.90328758 10.4983191,3.15325039 Z" id="Shape"></path>
                </g>
            </g>
        </g>
    </g>
</svg>