<?xml version="1.0" encoding="UTF-8"?>
<svg width="100%" height="100%" viewBox="0 0 183 84" version="1.1" xmlns="http://www.w3.org/2000/svg" xmlns:xlink="http://www.w3.org/1999/xlink">
    <title>8F67202F-70EA-4414-B51C-D52B21E86E6D</title>
    <g id="Page-1" stroke="none" stroke-width="1" fill="none" fill-rule="evenodd">
        <g id="Regulator---homepage---concept-FINAL" transform="translate(-287, -18)" fill="#FFFFFF" fill-rule="nonzero">
            <g id="regulator-logo-tagline" transform="translate(72, 0)">
                <path d="M260.295964,98.6193182 C260.536473,98.6193182 260.817068,98.5397727 261.298087,98.3011364 L261.177832,98.7386364 C260.656728,99.0568182 260.175709,99.2159091 259.69469,99.2159091 C258.772736,99.2159091 258.251632,98.6988636 258.251632,97.8238636 C258.251632,97.4659091 258.251632,97.3863636 258.772736,95.1988636 L259.414095,92.2556818 L258.452057,92.2556818 L258.572312,91.7784091 C259.494265,91.7784091 260.295964,90.9431818 260.857152,89.4318182 L261.338172,89.4318182 L260.817068,91.6988636 L262.620889,91.6988636 L262.460549,92.2556818 L260.696813,92.2556818 L259.77486,96.6306818 C259.69469,97.0681818 259.574435,97.6647727 259.574435,97.8238636 C259.574435,98.3011364 259.855029,98.6193182 260.295964,98.6193182 Z M268.393118,98.5397727 C268.152609,98.5397727 268.032354,98.3409091 268.032354,98.0625 C268.032354,97.7840909 268.072439,97.6647727 268.312948,96.6704545 L268.914222,94.2045455 C268.994392,93.8068182 269.074562,93.4090909 269.074562,93.1306818 C269.074562,92.1761364 268.393118,91.5397727 267.35091,91.5397727 C266.549212,91.5397727 265.827683,91.8977273 265.146239,92.5738636 L266.188447,88.4375 C265.426834,88.6363636 264.544965,88.7954545 263.703182,88.8352273 L263.623012,89.1136364 C264.384626,89.1136364 264.58505,89.1931818 264.58505,89.5113636 C264.58505,89.6306818 264.58505,89.6704545 264.464796,90.0284091 L262.22004,99.0568182 L263.502757,99.0568182 L264.705305,94.2443182 C264.865645,93.5681818 265.066069,93.2102273 265.346664,92.8920455 C265.747513,92.4545455 266.268617,92.2159091 266.789721,92.2159091 C267.43108,92.2159091 267.791844,92.5738636 267.791844,93.1306818 C267.791844,93.4090909 267.711674,93.8465909 267.631505,94.1647727 L267.070316,96.4715909 C266.789721,97.5056818 266.749636,97.8238636 266.749636,98.1818182 C266.749636,98.8181818 267.230655,99.2556818 267.912099,99.2556818 C268.633628,99.2556818 269.154732,98.8181818 269.555581,97.9034091 L269.234902,97.7045455 C268.834052,98.4204545 268.673713,98.5397727 268.393118,98.5397727 Z M272.040846,95.6761364 C271.920591,96.1136364 271.840422,96.5909091 271.840422,96.9488636 C271.840422,98.0625 272.441695,98.7386364 273.403734,98.7386364 C274.365772,98.7386364 275.287725,97.9034091 275.648489,96.7102273 L276.329933,96.7102273 C275.728659,98.3409091 274.566196,99.2556818 273.083054,99.2556818 C271.559827,99.2556818 270.637874,98.3011364 270.637874,96.7102273 C270.637874,95.5965909 271.078808,94.2443182 271.800337,93.25 C272.64212,92.1363636 273.644243,91.5397727 274.806706,91.5397727 C276.009254,91.5397727 276.810952,92.1363636 276.810952,93.0909091 C276.770867,94.6022727 274.806706,95.6363636 272.040846,95.6761364 Z M272.121016,95.2386364 L272.521865,95.2386364 C274.205432,95.1193182 275.608404,94.0454545 275.608404,92.8920455 C275.608404,92.375 275.207555,91.9772727 274.686451,91.9772727 C273.724413,91.9772727 272.72229,93.2102273 272.121016,95.2386364 Z M286.671843,97.7840909 C285.950315,98.7386364 284.988276,99.2556818 283.825814,99.2556818 C282.222417,99.2556818 281.340548,98.3011364 281.340548,96.5909091 C281.340548,95.2386364 281.861652,93.7272727 282.663351,92.8125 C283.38488,91.9772727 284.266748,91.5397727 285.389126,91.5397727 C286.912353,91.5397727 287.834306,92.4943182 287.834306,94.1647727 C287.794221,95.4375 287.353287,96.8295455 286.671843,97.7840909 Z M286.591673,93.7670455 C286.591673,92.5738636 286.150739,91.9772727 285.308956,91.9772727 C284.507257,91.9772727 283.986153,92.4147727 283.465049,93.5284091 C282.943945,94.6022727 282.623266,95.9943182 282.623266,97.0284091 C282.623266,98.2215909 283.0642,98.8181818 283.905984,98.8181818 C284.747767,98.8181818 285.349041,98.2613636 285.91023,96.9488636 C286.311079,95.9545455 286.591673,94.6818182 286.591673,93.7670455 Z M298.176216,91.6988636 L296.49265,91.6988636 L296.693074,90.9034091 C297.053838,89.3522727 297.414603,88.7954545 297.975792,88.7954545 C298.296471,88.7954545 298.496896,88.9545455 298.496896,89.1534091 C298.496896,89.2329545 298.496896,89.2727273 298.376641,89.4715909 C298.336556,89.5909091 298.296471,89.6704545 298.296471,89.75 C298.296471,90.0284091 298.536981,90.2670455 298.817575,90.2670455 C299.218424,90.2670455 299.499019,89.9488636 299.499019,89.4715909 C299.499019,88.8352273 298.897745,88.4375 297.935707,88.4375 C296.813329,88.4375 296.0918,88.9545455 295.690951,90.0681818 L295.450441,90.7443182 C295.410357,90.9431818 295.330187,91.1022727 295.250017,91.2613636 C295.169847,91.3806818 295.129762,91.5 295.049592,91.5795455 C294.889253,91.7386364 294.728913,91.7784091 294.247894,91.8181818 L294.087554,91.8181818 L293.967299,92.2954545 L295.009507,92.2954545 L293.72679,97.625 C293.085431,100.488636 292.524242,101.323864 290.96093,101.602273 L290.88076,102 C291.922968,102 292.804837,101.642045 293.526365,100.965909 C294.127639,100.369318 294.488403,99.6534091 294.889253,98.0227273 L296.292225,92.2556818 L298.015877,92.2556818 L298.176216,91.6988636 Z M293.56645,92.2954545 L293.686705,91.7386364 L292.003138,91.7386364 L292.203563,90.9431818 C292.564327,89.4318182 292.925091,88.8352273 293.48628,88.8352273 C293.80696,88.8352273 294.007384,88.9943182 294.007384,89.1931818 C294.007384,89.1931818 294.007384,89.2727273 293.967299,89.2727273 C293.80696,89.6306818 293.80696,89.6306818 293.80696,89.75 C293.80696,90.0681818 294.047469,90.2670455 294.328064,90.2670455 C294.728913,90.2670455 295.049592,89.9090909 295.049592,89.4715909 C295.049592,88.8352273 294.448318,88.4375 293.48628,88.4375 C292.363902,88.4375 291.642374,88.9545455 291.241525,90.0681818 C291.12127,90.3863636 291.001015,90.7443182 290.88076,91.1022727 C290.840675,91.2215909 290.760505,91.3806818 290.600166,91.5795455 C290.439826,91.7386364 290.279486,91.7784091 289.798467,91.8181818 L289.638128,91.8181818 L289.517873,92.2954545 L290.560081,92.2954545 L289.277363,97.625 C288.636004,100.488636 288.034731,101.323864 286.511504,101.602273 L286.431334,102 C287.473542,102 288.395495,101.642045 289.076939,100.965909 C289.678213,100.369318 289.998892,99.6534091 290.439826,98.0227273 L291.842798,92.2556818 L293.56645,92.2556818 L293.56645,92.2954545 Z M302.425218,91.7386364 C301.904114,91.5795455 301.62352,91.5 301.262755,91.5 C299.859783,91.5 298.737405,92.4545455 298.737405,93.6875 C298.737405,94.3636364 299.018,94.7215909 300.180462,95.4772727 C301.663605,96.3920455 301.783859,96.5511364 301.783859,97.1477273 C301.783859,98.0625 300.982161,98.8181818 300.020123,98.8181818 C299.298594,98.8181818 298.657235,98.3806818 298.456811,97.7045455 C298.376641,97.5056818 298.376641,97.2670455 298.376641,96.7897727 L298.376641,96.6306818 L298.015877,96.6306818 L297.695197,98.2215909 C298.376641,98.9375 299.138254,99.2556818 300.100293,99.2556818 C301.743774,99.2556818 303.026492,98.1420455 303.026492,96.7102273 C303.026492,95.9147727 302.665728,95.4375 301.423095,94.6818182 C300.060208,93.8465909 299.899868,93.7272727 299.899868,93.1704545 C299.899868,92.4545455 300.581312,91.8977273 301.38301,91.8977273 C302.184709,91.8977273 302.705813,92.4147727 302.705813,93.3295455 C302.705813,93.4090909 302.705813,93.4886364 302.665728,93.6477273 L303.026492,93.6477273 L303.467426,91.5 C303.186832,91.6590909 303.026492,91.7386364 302.866152,91.7386364 C302.785982,91.8181818 302.625643,91.7784091 302.425218,91.7386364 Z M310.362033,98.5397727 C310.121523,98.5397727 310.001269,98.3409091 310.001269,98.0625 C310.001269,97.7840909 310.041354,97.6647727 310.281863,96.6704545 L310.883137,94.2045455 C310.963307,93.8068182 311.043477,93.4090909 311.043477,93.1306818 C311.043477,92.1761364 310.362033,91.5397727 309.319825,91.5397727 C308.518127,91.5397727 307.796598,91.8977273 307.115154,92.5738636 L308.157362,88.4375 C307.395749,88.6363636 306.51388,88.7954545 305.672097,88.8352273 L305.591927,89.1136364 C306.353541,89.1136364 306.553965,89.1931818 306.553965,89.5113636 C306.553965,89.6306818 306.553965,89.6704545 306.433711,90.0284091 L304.188955,99.0568182 L305.471672,99.0568182 L306.67422,94.2443182 C306.83456,93.5681818 307.034984,93.2102273 307.315579,92.8920455 C307.716428,92.4545455 308.237532,92.2159091 308.758636,92.2159091 C309.399995,92.2159091 309.760759,92.5738636 309.760759,93.1306818 C309.760759,93.4090909 309.680589,93.8465909 309.600419,94.1647727 L309.039231,96.4715909 C308.758636,97.5056818 308.718551,97.8238636 308.718551,98.1818182 C308.718551,98.8181818 309.19957,99.2556818 309.881014,99.2556818 C310.602543,99.2556818 311.123647,98.8181818 311.524496,97.9034091 L311.203816,97.7045455 C310.802967,98.4204545 310.682712,98.5397727 310.362033,98.5397727 Z M319.100546,94.1647727 C319.100546,95.4375 318.659612,96.8295455 317.938084,97.7840909 C317.216555,98.7386364 316.254517,99.2556818 315.092054,99.2556818 C313.488657,99.2556818 312.606789,98.3011364 312.606789,96.5909091 C312.606789,95.2386364 313.127893,93.7272727 313.929591,92.8125 C314.65112,91.9772727 315.532988,91.5397727 316.655366,91.5397727 C318.218678,91.5397727 319.100546,92.5340909 319.100546,94.1647727 Z M317.897999,93.7670455 C317.897999,92.5738636 317.457064,91.9772727 316.615281,91.9772727 C315.813583,91.9772727 315.292479,92.4147727 314.771375,93.5284091 C314.250271,94.6022727 313.929591,95.9943182 313.929591,97.0284091 C313.929591,98.2215909 314.370525,98.8181818 315.212309,98.8181818 C316.054092,98.8181818 316.655366,98.2613636 317.216555,96.9488636 C317.577319,95.9545455 317.897999,94.6818182 317.897999,93.7670455 Z M325.754644,92.4545455 C325.754644,91.8977273 325.393879,91.5 324.792606,91.5 C323.950822,91.5 323.269378,92.0568182 322.54785,93.3693182 C322.788359,92.5340909 322.828444,92.2159091 322.828444,91.8977273 C322.828444,91.7386364 322.828444,91.6193182 322.748274,91.4602273 C322.30734,91.6590909 321.665981,91.7784091 320.784113,91.8579545 L320.703943,92.1363636 C321.545727,92.1363636 321.625897,92.2159091 321.625897,92.4943182 C321.625897,92.6136364 321.545727,92.9715909 321.505642,93.25 L320.0225,99.0965909 L321.265132,99.0965909 L322.22717,95.3181818 C322.668105,93.4886364 323.549973,92.2159091 324.271501,92.2159091 C324.471926,92.2159091 324.592181,92.2954545 324.632266,92.4545455 C324.431841,92.5738636 324.351671,92.6931818 324.351671,92.8920455 C324.351671,93.2102273 324.592181,93.4090909 324.91286,93.4090909 C325.433964,93.4090909 325.754644,93.0113636 325.754644,92.4545455 Z M326.917106,95.6761364 C326.796852,96.1136364 326.716682,96.5909091 326.716682,96.9488636 C326.716682,98.0625 327.317956,98.7386364 328.279994,98.7386364 C329.242032,98.7386364 330.163985,97.9034091 330.52475,96.7102273 L331.206193,96.7102273 C330.604919,98.3409091 329.442457,99.2556818 327.959314,99.2556818 C326.436087,99.2556818 325.514134,98.3011364 325.514134,96.7102273 C325.514134,95.5965909 325.955068,94.2443182 326.676597,93.25 C327.51838,92.1363636 328.520503,91.5397727 329.682966,91.5397727 C330.885514,91.5397727 331.687212,92.1363636 331.687212,93.0909091 C331.687212,94.6022727 329.723051,95.6363636 326.917106,95.6761364 Z M327.037361,95.2386364 L327.43821,95.2386364 C329.121777,95.1193182 330.52475,94.0454545 330.52475,92.8920455 C330.52475,92.375 330.1239,91.9772727 329.602796,91.9772727 C328.600673,91.9772727 327.59855,93.2102273 327.037361,95.2386364 Z M340.105046,88.4772727 C339.343433,88.6761364 338.461564,88.8352273 337.659866,88.875 L337.579696,89.1534091 C338.34131,89.1534091 338.541734,89.2329545 338.541734,89.5909091 C338.541734,89.6704545 338.501649,89.8693182 338.461564,90.0681818 L336.858167,96.4715909 C336.617658,97.4261364 336.537488,97.8636364 336.537488,98.1818182 C336.537488,98.8181818 337.018507,99.2556818 337.740036,99.2556818 C338.501649,99.2556818 338.862414,98.9375 339.383518,97.9034091 L339.062838,97.7443182 C338.702074,98.3806818 338.461564,98.5795455 338.18097,98.5795455 C337.94046,98.5795455 337.780121,98.4204545 337.780121,98.1022727 C337.780121,97.9034091 337.820206,97.6647727 338.060715,96.75 L340.105046,88.4772727 Z M343.512265,97.9034091 L343.191585,97.7045455 C342.790736,98.3409091 342.590312,98.5397727 342.269632,98.5397727 C342.029123,98.5397727 341.908868,98.3806818 341.908868,98.1022727 C341.908868,97.8636364 341.948953,97.7045455 342.229547,96.7102273 L343.63252,91.4602273 C342.830821,91.6590909 341.989038,91.8181818 341.147254,91.8579545 L341.067084,92.1363636 C341.788613,92.1363636 342.029123,92.2556818 342.029123,92.5340909 C342.029123,92.6136364 341.989038,92.7727273 341.908868,93.0511364 L340.986915,96.5113636 C340.666235,97.6647727 340.62615,97.9034091 340.62615,98.2215909 C340.62615,98.8579545 341.107169,99.2954545 341.788613,99.2954545 C342.550227,99.2556818 343.031246,98.8579545 343.512265,97.9034091 Z M342.510142,89.6306818 C342.510142,90.0284091 342.830821,90.3068182 343.23167,90.3068182 C343.752774,90.3068182 344.193708,89.8693182 344.193708,89.3125 C344.193708,88.875 343.913114,88.6363636 343.512265,88.6363636 C342.951076,88.6363636 342.510142,89.0738636 342.510142,89.6306818 Z M349.484918,91.6988636 L347.761267,91.6988636 L347.961691,90.9034091 C348.322456,89.3125 348.643135,88.7954545 349.244409,88.7954545 C349.565088,88.7954545 349.765513,88.9545455 349.765513,89.1534091 C349.765513,89.2329545 349.765513,89.2329545 349.645258,89.4715909 C349.605173,89.5909091 349.565088,89.6704545 349.565088,89.75 C349.565088,90.0284091 349.805598,90.2670455 350.086192,90.2670455 C350.487041,90.2670455 350.767636,89.9488636 350.767636,89.4715909 C350.767636,88.8352273 350.166362,88.4375 349.204324,88.4375 C348.081946,88.4375 347.360417,88.9545455 346.959568,90.0681818 C346.719059,90.8238636 346.518634,91.2613636 346.438464,91.4204545 C346.358294,91.5 346.398379,91.4602273 346.318209,91.5795455 C346.15787,91.7386364 345.99753,91.7784091 345.516511,91.8181818 L345.356171,91.8181818 L345.235916,92.2954545 L346.278125,92.2954545 L345.035492,97.625 C344.434218,100.488636 343.832944,101.323864 342.309717,101.602273 L342.229547,102 C344.474303,101.920455 345.556596,100.806818 346.23804,98.0227273 L347.600927,92.2556818 L349.324579,92.2556818 L349.484918,91.6988636 Z M350.326702,95.6761364 C350.206447,96.1136364 350.126277,96.5909091 350.126277,96.9488636 C350.126277,98.0625 350.727551,98.7386364 351.689589,98.7386364 C352.651627,98.7386364 353.573581,97.9034091 353.934345,96.7102273 L354.615789,96.7102273 C354.014515,98.3409091 352.852052,99.2556818 351.36891,99.2556818 C349.845683,99.2556818 348.923729,98.3011364 348.923729,96.7102273 C348.923729,95.5965909 349.364664,94.2443182 350.086192,93.25 C350.927976,92.1363636 351.930099,91.5397727 353.092562,91.5397727 C354.295109,91.5397727 355.096808,92.1363636 355.096808,93.0909091 C355.056723,94.6022727 353.092562,95.6363636 350.326702,95.6761364 Z M350.446957,95.2386364 L350.847806,95.2386364 C352.531373,95.1193182 353.934345,94.0454545 353.934345,92.8920455 C353.934345,92.375 353.533496,91.9772727 353.012392,91.9772727 C352.010269,91.9772727 351.008145,93.2102273 350.446957,95.2386364 Z M330.845429,42.8181818 C330.845429,42.8181818 327.037361,42.9772727 325.474049,43.6534091 C325.474049,43.6534091 328.881268,46.7159091 329.642881,49.7784091 C329.642881,49.7784091 331.687212,48.2272727 331.526873,46.4375 C331.566958,46.4375 331.767382,44.8863636 330.845429,42.8181818 Z M329.642881,39.6761364 C329.642881,39.6761364 328.680843,37.1704545 323.950822,34.3068182 C323.950822,34.3068182 323.590058,36.7727273 321.465557,39.2386364 L321.826321,39.6363636 C321.786236,39.6761364 325.193455,38.9204545 329.642881,39.6761364 Z M317.577319,30.6079545 C317.577319,30.6079545 317.17647,34.5056818 316.334687,35.5397727 C316.334687,35.5397727 318.779867,36.7329545 320.984538,38.8409091 C320.984538,38.8409091 322.908614,36.9318182 323.389633,33.9488636 C323.349548,33.9488636 322.026746,32 317.577319,30.6079545 Z M299.058085,36.8920455 C298.015877,37.1704545 299.178339,37.8068182 299.859783,38.0454545 C300.541227,38.3238636 301.062331,39.1988636 301.062331,39.2386364 L301.70369,39.4772727 L302.304963,37.6079545 C302.304963,37.6079545 300.060208,36.6136364 299.058085,36.8920455 Z M236.325179,70.9375 C235.242886,71.9715909 233.960169,72.6875 232.436942,73.0454545 L234.200678,81.8352273 L229.190063,81.8352273 L227.666836,73.6420455 L222.616135,73.6420455 L219.529596,81.8352273 L215,81.8352273 L215.08017,81.6363636 L222.89673,60.7556818 L233.719659,60.7556818 C235.76399,60.7556818 237.247133,61.1136364 238.169086,61.7897727 C239.131124,62.5056818 239.451803,63.6590909 239.211294,65.3295455 C239.131124,65.8863636 238.970784,66.4829545 238.730275,67.1988636 L238.730275,67.1988636 C238.129001,68.7102273 237.327302,69.9829545 236.325179,70.9375 Z M233.799829,65.0511364 C233.278725,64.8125 232.436942,64.6534091 231.234394,64.6534091 L226.023354,64.6534091 L224.099278,69.7443182 L229.270233,69.7443182 C230.673205,69.7443182 231.635243,69.625 232.196432,69.4261364 C233.078301,69.0681818 233.719659,68.3125 234.160593,67.1193182 C234.280848,66.8409091 234.320933,66.6022727 234.361018,66.3636364 C234.441188,65.7272727 234.280848,65.3295455 233.799829,65.0511364 Z M247.468788,65.7272727 C248.551081,64.9318182 249.913968,64.5340909 251.437195,64.5340909 L258.692567,64.5340909 L260.095539,60.7556818 L252.679828,60.7556818 C249.392864,60.7556818 246.66709,61.5113636 244.582674,63.0227273 C242.217663,64.7329545 240.213417,67.6363636 238.730275,71.6534091 C238.289341,72.8465909 238.008746,73.9204545 237.848406,74.8352273 C237.487642,77.2215909 237.928576,79.0113636 239.211294,80.2045455 C240.413842,81.2784091 242.257748,81.8352273 244.743013,81.8352273 L252.158724,81.8352273 L253.601781,78.0568182 L246.34641,78.0568182 C245.103778,78.0568182 244.181824,77.8181818 243.620635,77.3806818 C243.019362,76.8636364 242.818937,76.0284091 242.979277,74.875 C243.059446,74.3181818 243.219786,73.7215909 243.460296,73.0852273 L255.525858,73.0852273 L256.92883,69.3068182 L244.943438,69.3068182 C245.584797,67.6761364 246.42658,66.5227273 247.468788,65.7272727 Z M263.903607,81.8352273 L268.232778,81.8352273 L273.644243,81.8352273 L278.334179,69.2670455 L277.291971,69.2670455 L268.713798,69.2670455 L267.27074,73.1647727 L271.439572,73.1647727 L269.715921,77.8977273 L265.627258,77.8977273 C264.304456,77.8977273 263.382503,77.5397727 262.901484,76.9034091 C262.460549,76.3068182 262.340295,75.3920455 262.540719,74.1590909 C262.660974,73.2840909 262.941569,72.3295455 263.342418,71.2556818 C264.144116,69.1079545 265.146239,67.4375 266.268617,66.3636364 C267.51125,65.2102273 268.994392,64.6136364 270.677959,64.6136364 L273.243394,64.6136364 L280.45868,64.6136364 L281.861652,60.8352273 L272.000761,60.8352273 C271.359402,60.8352273 270.718044,60.875 270.11677,60.9545455 C267.230655,61.2727273 264.705305,62.3863636 262.701059,64.2556818 C260.817068,66.0056818 259.253756,68.5113636 258.051208,71.7329545 C257.610274,72.9659091 257.289594,74.0795455 257.129255,75.0738636 C256.76849,77.4204545 257.16934,79.2102273 258.371887,80.3636364 C259.45418,81.2784091 261.298087,81.8352273 263.903607,81.8352273 Z M292.804837,80.3636364 C294.287979,79.5284091 295.450441,78.3352273 296.33231,76.8238636 C296.612904,76.3465909 297.093923,75.2329545 297.735282,73.5625 L302.505388,60.7556818 L297.975792,60.7556818 L293.285856,73.3238636 C292.484157,75.3125 291.642374,76.6647727 290.720421,77.4204545 C289.798467,78.1761364 288.475665,78.5340909 286.792098,78.5340909 C285.308956,78.5340909 284.266748,78.2556818 283.745644,77.6590909 C283.344795,77.2215909 283.22454,76.625 283.344795,75.7897727 C283.38488,75.5511364 283.465049,75.2329545 283.625389,74.7954545 C283.785729,74.3579545 283.946068,73.8806818 284.146493,73.4431818 L288.876514,60.7556818 L284.346918,60.7556818 L279.336302,74.0795455 C279.216047,74.3579545 279.015623,74.9147727 278.694943,75.7102273 C278.574689,76.1079545 278.494519,76.5056818 278.414349,76.9034091 C278.173839,78.375 278.494519,79.5681818 279.336302,80.4034091 C280.45868,81.4772727 282.543096,82.0340909 285.549465,82.0340909 C288.43558,82.0340909 290.88076,81.4772727 292.804837,80.3636364 Z M304.188955,77.3806818 C303.788106,76.9431818 303.627766,76.3068182 303.788106,75.4318182 C303.868275,74.9943182 303.98853,74.4772727 304.22904,73.8806818 C304.30921,73.7215909 304.469549,73.2443182 304.790229,72.3693182 L309.159485,60.7159091 L304.629889,60.7159091 L299.939953,73.2045455 C299.539104,74.3977273 299.258509,75.4318182 299.09817,76.3068182 C298.817575,78.1761364 299.09817,79.5681818 299.980038,80.4431818 C300.861906,81.3181818 302.505388,81.7556818 304.910483,81.7556818 L311.203816,81.7556818 L312.566704,78.1363636 L307.195324,78.1363636 C305.712182,78.2159091 304.710059,77.9375 304.188955,77.3806818 Z M335.33494,60.7556818 L336.417233,81.8352273 L334.773751,81.8352273 L331.406618,81.8352273 L331.326448,76.8238636 L322.427595,76.8238636 L320.0225,80.0852273 L318.739782,81.8352273 L313.889506,81.8352273 L317.617404,77.1022727 L320.343179,73.6818182 C318.298848,75.9488636 316.495026,77.7386364 315.532988,78.375 C315.372648,78.4943182 314.73129,78.8920455 313.608912,79.4886364 C313.007638,79.8068182 313.007638,79.9659091 313.328317,79.4090909 C313.648997,78.7727273 313.608912,78.6136364 313.809336,78.4943182 C314.73129,77.9772727 315.132139,77.6590909 315.492903,77.3806818 C318.619527,74.7954545 325.955068,67.1193182 328.921353,60.2784091 C329.442457,59.0852273 330.244155,56.9375 330.36441,55.9034091 C330.44458,55.1875 331.286363,51.6079545 330.324325,50.5738636 C330.324325,50.5738636 332.208316,49.5397727 332.569081,46.9943182 C332.72942,45.8011364 332.368656,44.0511364 331.807467,42.0625 C331.126023,42.1022727 330.28424,42.1420455 329.282117,42.1818182 C323.189209,42.4204545 317.25664,47.0738636 316.976045,46.8352273 C316.735536,46.5965909 312.12577,43.8125 312.12577,43.8125 C312.12577,43.8125 313.969676,42.3011364 318.579442,40.9886364 C322.507765,39.875 327.51838,40.1136364 331.286363,40.5113636 C331.085938,39.9943182 329.923476,37.4090909 327.077446,34.8238636 C323.950822,32 322.38751,31.1647727 322.147001,30.9659091 C321.906491,30.7670455 317.817829,28.4602273 313.849421,28.8181818 C309.881014,29.1761364 308.037107,30.0511364 306.83456,30.4090909 C305.591927,30.7670455 301.864029,32.1590909 301.342925,32.3579545 C300.821821,32.5568182 298.737405,33.3920455 302.785982,32.7556818 C302.785982,32.7556818 306.273371,32.0795455 307.475919,31.6420455 C308.638381,31.1647727 312.20594,30.3693182 314.089931,30.4090909 C314.089931,30.4090909 316.895876,30.2897727 316.895876,30.7272727 C316.895876,31.1647727 316.254517,33.9090909 316.254517,34.1079545 C316.254517,34.3068182 315.933837,35.1818182 315.773498,35.1818182 C315.613158,35.1818182 312.406364,33.7102273 309.680589,33.5113636 C307.516003,33.3125 305.431587,33.4318182 304.710059,33.5511364 C303.948445,33.6704545 300.821821,33.9090909 300.300717,33.8295455 C299.779613,33.75 299.338679,33.7897727 299.338679,33.7897727 L299.298594,33.8295455 L299.298594,33.8693182 L299.298594,33.9488636 L299.338679,34.0284091 L299.378764,34.2670455 C299.378764,34.2670455 299.619274,35.5795455 298.77749,35.8977273 C297.935707,36.2159091 296.893499,36.5340909 296.17197,35.9772727 C295.490526,35.4204545 295.209932,34.9829545 295.209932,34.625 C295.209932,34.2670455 295.209932,33.9488636 295.209932,33.9488636 L295.049592,33.9886364 C295.049592,33.9886364 290.600166,34.7840909 290.079062,34.7840909 C289.557958,34.8238636 288.59592,34.9034091 288.59592,34.9034091 C288.59592,34.9034091 293.285856,35.7784091 294.969422,36.6931818 C296.652989,37.6079545 299.579189,39.0795455 299.939953,39.3977273 C300.300717,39.7159091 301.864029,40.4318182 299.939953,40.7897727 C298.055962,41.1079545 295.931461,42.1420455 294.488403,42.7386364 C293.045346,43.375 289.076939,46.1988636 289.277363,46.3579545 C289.477788,46.5568182 292.925091,45.7215909 293.766875,45.3238636 C293.766875,45.3238636 295.250017,44.7670455 295.370272,44.7670455 C295.490526,44.7670455 295.610781,44.8068182 296.612904,45.2840909 C297.574942,45.7613636 298.77749,46.2784091 299.418849,46.5170455 C300.100293,46.7556818 304.188955,47.8693182 305.070823,47.8295455 C305.070823,47.8295455 306.032861,47.8295455 306.153116,47.75 C306.233286,47.6306818 305.431587,46.8352273 305.271248,46.6761364 C305.110908,46.5568182 304.790229,46.2784091 304.790229,46.2784091 L304.750144,45.9602273 L305.792352,45.2840909 L304.910483,44.8068182 L304.108785,45.6818182 L304.028615,45.7613636 L303.868275,45.7613636 L303.667851,45.7215909 L303.587681,45.5625 L303.467426,45.4431818 C303.467426,45.4431818 301.22267,43.9318182 300.140378,43.8125 C299.058085,43.6931818 297.655112,43.6534091 297.134008,43.8125 C296.973669,43.8522727 296.893499,43.8920455 296.853414,43.8920455 L296.693074,43.9715909 L296.572819,44.0511364 L296.452565,44.0909091 L296.33231,44.0909091 L296.212055,44.0909091 L296.131885,44.0511364 L296.051715,43.9715909 L295.971545,43.8920455 L295.931461,43.8125 L295.931461,43.7329545 L295.971545,43.6136364 L296.17197,43.4545455 L296.33231,43.3352273 C296.33231,43.3352273 298.536981,42.1420455 299.539104,41.9431818 C300.501142,41.7443182 301.022246,41.7045455 301.46318,41.7045455 C301.904114,41.7045455 302.064454,41.6647727 302.184709,41.6647727 C302.304963,41.6647727 302.505388,41.0681818 302.505388,40.8693182 C302.505388,40.6306818 302.946322,39.1988636 303.146747,39 C303.347171,38.8011364 303.828191,38.2045455 304.108785,38.2045455 C304.389379,38.2045455 304.950568,38.1647727 304.589804,38.5625 C304.22904,38.9602273 303.868275,39.7954545 303.868275,40.0738636 C303.868275,40.3522727 304.469549,40.7102273 305.070823,40.6704545 C305.672097,40.6306818 306.794475,40.3522727 307.516003,39.5568182 C308.237532,38.7613636 308.437957,37.9261364 308.397872,37.5284091 C308.397872,37.0909091 308.878891,36.2159091 308.918976,37.0511364 C308.959061,37.8863636 308.317702,39.9147727 307.956938,40.3125 C307.596173,40.7102273 306.954815,41.7045455 305.792352,42.0227273 C304.629889,42.3409091 304.30921,42.3409091 304.30921,42.3409091 L304.589804,43.0170455 C304.589804,43.0170455 304.910483,43.4545455 305.231163,43.4545455 C305.591927,43.4545455 307.355664,43.5738636 309.600419,42.1818182 C311.80509,40.7897727 311.96543,40.6306818 312.566704,39.9943182 C313.167978,39.3579545 313.408487,38.4829545 313.368402,38.2840909 C313.368402,38.0852273 313.528742,37.1306818 314.009761,37.7670455 C314.009761,37.7670455 314.089931,39.1988636 313.167978,40.6306818 C312.246024,42.0625 312.165855,41.7840909 312.085685,42.0625 C311.96543,42.3409091 311.765005,43.2159091 311.364156,43.6534091 C310.963307,44.0909091 310.081439,44.9261364 309.52025,45.125 C308.918976,45.3238636 308.357787,45.6818182 307.556088,45.5625 C307.556088,45.5625 306.634135,45.3636364 307.075069,45.9602273 C307.516003,46.5568182 308.558211,47.9488636 309.159485,48.4659091 C309.720674,48.9829545 313.488657,51.9261364 314.57095,51.8863636 C314.57095,51.8863636 319.220801,52.2443182 320.864283,53.0397727 C322.507765,53.8352273 324.552096,55.4261364 325.634389,57.4943182 C326.716682,59.5625 326.997276,61.0738636 327.037361,61.2329545 L327.037361,61.3522727 L326.917106,61.3522727 L326.796852,61.3522727 L326.676597,61.3522727 L326.476172,61.3125 L326.396002,61.1534091 L326.275748,60.9545455 C326.275748,60.9545455 325.15337,58.2897727 322.828444,56.6590909 C320.503519,55.0284091 319.902245,54.8295455 319.060461,54.5909091 C319.060461,54.5909091 321.064708,57.4545455 321.225047,60.6761364 C321.345302,63.8977273 321.024623,65.2897727 320.824198,65.5284091 C320.623773,65.7272727 320.263009,66.0056818 320.182839,63.9375 C320.182839,63.9375 320.102669,61.9090909 319.421226,60.7556818 C318.980292,60.0397727 318.980292,59.8806818 318.980292,59.8806818 L318.459188,61.3125 C318.459188,61.3125 317.857914,61.5909091 317.25664,61.0340909 C316.615281,60.4772727 316.214432,60.0795455 316.214432,60.0795455 C316.214432,60.0795455 316.495026,62.0284091 317.33681,62.8238636 L318.018253,63.5 C318.018253,63.5 318.218678,63.6988636 317.657489,64.6136364 C317.0963,65.5284091 316.094177,67.2784091 315.733413,67.6761364 L315.412733,68.1931818 C315.332564,68.2727273 314.891629,67.9943182 314.41061,67.5568182 C313.929591,67.1193182 313.007638,66.0454545 313.007638,66.0454545 C313.007638,66.0454545 313.368402,67.5965909 313.889506,68.3920455 C314.41061,69.1875 314.450695,69.4659091 314.49078,69.5056818 C314.530865,69.5454545 313.368402,71.4147727 312.446449,72.0511364 C311.524496,72.6875 310.963307,73.2443182 310.923222,73.2443182 L309.52025,71.2954545 C309.480165,71.2556818 309.640504,73.2840909 309.881014,73.7215909 C310.121523,74.1193182 310.041354,74.0397727 309.881014,74.2386364 C309.600419,74.5170455 307.876768,76.3465909 307.075069,76.8636364 C306.473795,77.2215909 306.433711,77.1818182 306.233286,77.2215909 C306.032861,77.2613636 305.632012,77.1022727 305.311333,76.8636364 C305.110908,76.7045455 304.669974,76.1477273 304.950568,75.4318182 C305.311333,74.4375 305.992776,72.1306818 306.153116,71.9318182 C309.399995,68.2329545 311.524496,65.9261364 312.927468,62.3068182 C314.370525,58.6477273 315.051969,56.5 315.132139,55.1079545 L315.212309,54.0340909 C315.172224,53.9943182 312.767128,52.6818182 312.646874,52.6022727 C312.526619,52.4829545 312.0456,52.8409091 311.96543,53.9943182 C311.88526,55.1477273 311.96543,56.4602273 312.085685,56.5397727 C312.20594,56.6193182 312.12577,57.3352273 311.88526,57.3352273 C311.684836,57.3352273 310.442203,57.0170455 309.640504,54.9488636 C308.838806,52.8806818 308.237532,50.8125 308.317702,50.0965909 C308.397872,49.4204545 308.237532,49.3806818 308.077192,49.2215909 C307.916853,49.0625 307.556088,48.7840909 307.275494,48.7840909 C306.994899,48.7840909 305.632012,48.8636364 304.469549,48.7443182 C303.307086,48.625 299.579189,47.6704545 297.134008,46.4772727 C297.134008,46.4772727 296.17197,45.9602273 296.051715,45.8806818 C295.931461,45.8011364 295.731036,45.7215909 294.969422,45.9602273 C294.207809,46.1988636 292.564327,47.2329545 290.519996,47.3125 C288.475665,47.3920455 287.032599,47.75 288.836429,45.8011364 C290.640251,43.8920455 292.043223,43.0568182 292.885006,42.6193182 C293.72679,42.1818182 295.490526,41.4659091 295.490526,41.4659091 C295.490526,41.4659091 289.397618,36.9318182 286.992523,36.0170455 C286.992523,36.0170455 282.703436,34.2272727 280.899614,33.5909091 C279.095793,32.9545455 271.680082,30.6875 270.597789,30.3693182 C269.515496,30.0511364 267.872014,29.4147727 267.791844,29.4147727 C267.711674,29.4147727 265.827683,28.4204545 268.312948,28.9375 C270.838298,29.4545455 282.90386,32.4375 283.665474,32.6761364 C284.427088,32.875 290.359656,33.9090909 293.80696,33.1136364 C293.80696,33.1136364 299.859783,31.8806818 300.741651,31.6420455 C301.663605,31.4034091 305.110908,30.0511364 306.072946,29.7329545 C307.676343,29.1761364 309.961184,28.6193182 310.522373,28.5795455 C311.083562,28.5397727 311.404241,28.5 311.524496,28.3806818 C311.644751,28.2215909 314.891629,22.0965909 318.459188,20.0681818 C322.026746,18.0795455 322.026746,18.0397727 322.38751,18 C322.788359,18 323.309463,18.1590909 322.908614,18.5965909 C322.46768,19.0738636 321.746151,20.0284091 321.786236,20.5852273 C321.826321,21.1420455 321.986661,22.8125 321.545727,23.2897727 C321.545727,23.2897727 320.984538,24.2443182 320.984538,24.5625 C320.984538,24.8806818 320.984538,25.9147727 321.104793,26.3522727 C321.225047,26.8295455 321.064708,27.5454545 321.064708,27.625 C321.064708,27.7045455 324.471926,29.4545455 326.235663,31.2840909 C326.235663,31.2840909 329.081692,33.7897727 330.604919,36.7329545 C332.007892,39.3579545 332.168231,40.5511364 332.168231,40.6704545 C332.168231,40.7102273 332.128147,40.7102273 332.088062,40.75 C332.528996,40.7897727 332.929845,40.8693182 333.330694,40.9090909 C337.178847,41.4261364 335.375025,42.1022727 335.375025,42.1022727 C335.375025,42.1022727 335.49528,42.1022727 332.769505,42.2215909 C332.929845,43.0965909 333.611289,46.3977273 333.531119,48.2272727 C333.491034,49.8181818 333.13027,53.0795455 331.727297,56.5397727 C330.163985,60.3977273 329.282117,62.2272727 328.039484,64.2556818 C327.91923,64.4545455 327.798975,64.6534091 327.638635,64.8522727 L330.805344,60.875 L334.853921,60.875 L335.33494,60.875 L335.33494,60.7556818 Z M298.296471,34.625 C298.296471,34.1875 297.895622,33.8295455 297.414603,33.8295455 C296.933584,33.8295455 296.572819,34.2272727 296.612904,34.6647727 C296.612904,35.1022727 297.013754,35.4602273 297.494773,35.4602273 C297.935707,35.4602273 298.296471,35.1022727 298.296471,34.625 Z M331.286363,72.8863636 L331.206193,65.25 L325.433964,72.8863636 L331.286363,72.8863636 Z M338.702074,81.8352273 L343.512265,81.8352273 L349.965937,64.6136364 L356.66012,64.6136364 L358.063092,60.8352273 L339.944707,60.8352273 L338.541734,64.6136364 L345.155747,64.6136364 L338.702074,81.8352273 Z M375.740543,71.2954545 C374.217316,75.2329545 372.012645,78.1761364 369.246786,79.9659091 C367.803728,80.9204545 366.200331,81.5568182 364.47668,81.9147727 C363.434472,82.1136364 362.352179,82.2329545 361.189716,82.2329545 C358.985045,82.2329545 357.261394,81.8352273 356.018761,81.1193182 C354.0546,79.9261364 353.292986,77.7784091 353.774005,74.7954545 C353.854175,74.2386364 353.97443,73.6818182 354.13477,73.0852273 C354.295109,72.5284091 354.495534,71.8522727 354.776128,71.1363636 C355.898506,68.1534091 357.341563,65.7670455 359.065215,64.0568182 C360.508272,62.625 362.191839,61.6306818 364.156,60.9943182 C364.156,60.9943182 364.196085,60.9943182 364.196085,60.9943182 C365.679227,60.5170455 367.362794,60.3181818 369.246786,60.3181818 C372.493664,60.3181818 374.73842,61.0340909 375.940968,62.3863636 C376.943091,63.5397727 377.26377,65.1704545 376.903006,67.3181818 C376.822836,67.9147727 376.662497,68.5511364 376.462072,69.1875 C376.301732,69.7840909 376.061223,70.5 375.740543,71.2954545 L375.740543,71.2954545 Z M370.970437,64.9318182 C370.369164,64.375 369.36704,64.0965909 367.964068,64.0965909 C366.240416,64.0965909 364.677104,64.6534091 363.274132,65.8068182 C363.234047,65.8465909 363.193962,65.8863636 363.153877,65.8863636 C361.71082,67.0795455 360.548357,68.9090909 359.626404,71.2556818 C359.425979,71.8522727 359.225555,72.4090909 359.065215,72.9261364 C358.904875,73.4829545 358.784621,74 358.704451,74.4772727 C358.504026,75.7102273 358.624281,76.6647727 359.1053,77.3011364 C359.666489,78.0965909 360.788867,78.4943182 362.432349,78.4943182 C362.833198,78.4943182 363.193962,78.4545455 363.554727,78.4147727 C365.118039,78.2159091 366.440841,77.5795455 367.563219,76.5056818 C368.725682,75.3920455 369.807975,73.6022727 370.729928,71.2159091 C371.130777,70.0625 371.411372,69.0681818 371.571711,68.2329545 C371.852306,66.7215909 371.651881,65.6079545 370.970437,64.9318182 Z M397.907506,65.2897727 C397.827336,65.8465909 397.666996,66.4431818 397.426487,67.1590909 L397.426487,67.1590909 C396.825213,68.7102273 396.023515,69.9829545 395.061476,70.9375 C393.979183,71.9715909 392.696466,72.6875 391.173239,73.0454545 L392.936975,81.8352273 L387.886275,81.8352273 L387.84619,81.7159091 L386.322963,73.6420455 L381.352433,73.6420455 L378.265893,81.8352273 L373.696212,81.8352273 L373.776382,81.6363636 L381.592942,60.7556818 L392.415871,60.7556818 C394.460203,60.7556818 395.943345,61.1136364 396.865298,61.7897727 C397.827336,62.4659091 398.1881,63.6590909 397.907506,65.2897727 Z M392.536126,65.0511364 C392.015022,64.8125 391.173239,64.6534091 389.970691,64.6534091 L384.719566,64.6534091 L382.79549,69.7443182 L387.966445,69.7443182 C389.369417,69.7443182 390.331455,69.625 390.892644,69.4261364 C391.774513,69.0681818 392.415871,68.3125 392.856806,67.1193182 C392.97706,66.8409091 393.017145,66.6022727 393.05723,66.3636364 C393.177485,65.7272727 392.97706,65.3295455 392.536126,65.0511364 Z" id="Shape"></path>
            </g>
        </g>
    </g>
</svg>