<?xml version="1.0" encoding="UTF-8"?>
<svg viewBox="0 0 18 22" version="1.1" xmlns="http://www.w3.org/2000/svg" xmlns:xlink="http://www.w3.org/1999/xlink">
    <g id="Page-1" stroke="none" stroke-width="1" fill="none" fill-rule="evenodd">
        <g id="Regulator---homepage---concept-FINAL" transform="translate(-1134, -1035)" fill="currentColor">
            <g id="main-CTAs" transform="translate(495, 1012)">
                <g id="pin" transform="translate(639, 23)">
                    <path d="M13.2721019,9.27209964 C13.2721019,11.4812996 11.4813019,13.2720996 9.27210189,13.2720996 C7.06300189,13.2720996 5.27214189,11.4812996 5.27214189,9.27209964 C5.27214189,7.06297964 7.06300189,5.27211964 9.27210189,5.27211964 C11.4813019,5.27211964 13.2721019,7.06297964 13.2721019,9.27209964 Z M11.2721019,9.27209964 C11.2721019,10.3766996 10.3767019,11.2720996 9.27210189,11.2720996 C8.16760189,11.2720996 7.27210189,10.3766996 7.27210189,9.27209964 C7.27210189,8.16754964 8.16760189,7.27211964 9.27210189,7.27211964 C10.3767019,7.27211964 11.2721019,8.16754964 11.2721019,9.27209964 Z" id="Shape"></path>
                    <path d="M2.79417189,15.5182996 C-0.805758108,12.0908996 -0.945618108,6.39408964 2.48178189,2.79416964 C5.90918189,-0.805757355 11.6059019,-0.945617355 15.2059019,2.48177964 C18.8058019,5.90917964 18.9457019,11.6058996 15.5183019,15.2058996 L9.31240189,21.7240996 L2.79417189,15.5182996 Z M14.0698019,13.8267996 L9.24300189,18.8964996 L4.17324189,14.0697996 C1.37330189,11.4039996 1.26452189,6.97317964 3.93028189,4.17323964 C6.59603189,1.37329964 11.0268019,1.26451964 13.8268019,3.93027964 C16.6267019,6.59602964 16.7355019,11.0267996 14.0698019,13.8267996 Z" id="Shape"></path>
                </g>
            </g>
        </g>
    </g>
</svg>