<?xml version="1.0" encoding="UTF-8"?>
<svg width="19px" height="19px" viewBox="0 0 19 19" version="1.1" xmlns="http://www.w3.org/2000/svg" xmlns:xlink="http://www.w3.org/1999/xlink">
    <title>5019D4CF-944F-4DC9-85CD-0C3387AE5523</title>
    <g id="Page-1" stroke="none" stroke-width="1" fill="none" fill-rule="evenodd">
        <g id="Regulator---homepage---concept-FINAL" transform="translate(-1646, -67)" fill="#ffffff" fill-rule="nonzero">
            <g id="top-nav" transform="translate(72, 0)">
                <g id="icon-search" transform="translate(1574, 67)">
                    <path d="M7.96823586,15.909961 C9.77621943,15.909961 11.4922716,15.2980721 12.9018859,14.196672 L17.7129609,19 L19,17.7150333 L14.2195689,12.8811109 C16.9468661,9.42393853 16.3646341,4.4370439 12.9018859,1.71413824 C9.43913775,-1.00876742 4.4442001,-0.427472953 1.71690285,3.0296994 C-1.01039439,6.48687175 -0.428162395,11.4737664 3.03458579,14.196672 C4.4442001,15.2980721 6.19089609,15.909961 7.96823586,15.909961 Z M7.96823586,1.83651602 C11.3390527,1.83651602 14.0969937,4.59001612 14.0969937,7.95540514 C14.0969937,11.3207942 11.3390527,14.0742943 7.96823586,14.0742943 C4.59741904,14.0742943 1.83947801,11.3207942 1.83947801,7.95540514 C1.83947801,4.59001612 4.59741904,1.83651602 7.96823586,1.83651602 Z" id="Shape"></path>
                </g>
            </g>
        </g>
    </g>
</svg>