<?xml version="1.0" encoding="UTF-8"?>
<svg viewBox="0 0 142 30" version="1.1" xmlns="http://www.w3.org/2000/svg" xmlns:xlink="http://www.w3.org/1999/xlink">
    <title>9C8DC59E-444D-44F9-B83F-FD7621E61611</title>
    <g id="Page-1" stroke="none" stroke-width="1" fill="none" fill-rule="evenodd">
        <g id="Regulator---homepage---concept-FINAL" transform="translate(-1342, -18493)" fill="currentColor" fill-rule="nonzero">
            <g id="footer" transform="translate(73, 17897)">
                <g id="yamaha-logo" transform="translate(1269, 596)">
                    <path d="M53.5253879,2.34219269 L48.9689704,27.7076412 L54.1262341,27.7076412 L54.977433,21.6777409 L58.8829337,21.6777409 L59.7341326,27.7076412 L64.9414669,27.7076412 L60.3850494,2.34219269 L53.5253879,2.34219269 Z M55.6784203,17.0930233 L56.9802539,8.12292359 L58.2820874,17.0930233 L55.6784203,17.0930233 Z M15.0712271,0 C6.75952045,0 0,6.72757475 0,15 C0,23.2724252 6.75952045,30 15.0712271,30 C23.3829337,30 30.1424542,23.2724252 30.1424542,15 C30.1424542,6.72757475 23.4330042,0 15.0712271,0 Z M27.6889986,21.9269103 C27.7390691,22.0265781 27.7891396,22.1760797 27.6889986,22.2757475 C27.6389281,22.3754153 27.4887165,22.4252492 27.3885755,22.4252492 L25.3356841,21.9269103 C23.0825106,25.2159468 19.3272214,27.3089701 15.0712271,27.3089701 C10.8152327,27.3089701 7.05994358,25.166113 4.85684062,21.9269103 L2.80394922,22.4252492 C2.70380818,22.4252492 2.55359661,22.3754153 2.50352609,22.2757475 C2.45345557,22.1760797 2.45345557,22.0265781 2.50352609,21.9269103 L3.95557123,20.3820598 C3.15444288,18.7873754 2.7538787,16.9435216 2.7538787,15.0498339 C2.70380818,8.52159468 7.76093089,3.18936877 14.1699577,2.6910299 L14.8208745,0.697674419 C14.870945,0.598006645 14.971086,0.49833887 15.1212976,0.49833887 C15.2715092,0.49833887 15.3716502,0.598006645 15.4217207,0.697674419 L16.0726375,2.6910299 C22.4315938,3.18936877 27.4887165,8.52159468 27.4887165,15 C27.4887165,16.9435216 27.0380818,18.7375415 26.287024,20.3322259 L27.6889986,21.9269103 Z M137.493653,2.34219269 L130.583921,2.34219269 L126.027504,27.7076412 L131.184767,27.7076412 L132.035966,21.6777409 L135.941467,21.6777409 L136.792666,27.7076412 L142,27.7076412 L137.493653,2.34219269 Z M132.736953,17.0930233 L134.038787,8.12292359 L135.340621,17.0930233 L132.736953,17.0930233 Z M49.4196051,2.34219269 L43.8117066,19.3853821 L43.8117066,27.7076412 L38.3039492,27.7076412 L38.3039492,19.3853821 L32.6960508,2.34219269 L37.903385,2.34219269 L41.1078984,13.654485 L44.3124118,2.34219269 L49.4196051,2.34219269 Z M117.916079,2.34219269 L123.123413,2.34219269 L123.123413,27.7076412 L117.916079,27.7076412 L117.916079,17.0930233 L113.409732,17.0930233 L113.409732,27.7574751 L108.202398,27.7574751 L108.202398,2.34219269 L113.409732,2.34219269 L113.409732,12.4584718 L117.916079,12.4584718 L117.916079,2.34219269 Z M22.932299,18.5880399 C22.4816643,18.3388704 22.2313117,17.8903654 22.1812412,17.4418605 L22.1812412,17.4418605 C22.0811001,16.744186 21.680536,16.0963455 21.0296192,15.6976744 L21.0296192,15.6976744 L21.0296192,15.6976744 C21.0296192,15.6976744 21.0296192,15.6976744 21.0296192,15.6976744 L19.7778561,14.9501661 L25.3857546,11.7109635 L24.7348378,10.6644518 L18.4760226,14.2524917 L17.4245416,13.654485 L17.4245416,12.4086379 L23.6833568,8.82059801 L23.0825106,7.77408638 L17.4746121,11.013289 L17.4746121,9.56810631 C17.4746121,8.82059801 17.1241185,8.12292359 16.5232722,7.72425249 L16.5232722,7.72425249 C16.122708,7.42524917 15.922426,6.97674419 15.922426,6.47840532 C15.922426,5.98006645 16.1727786,5.53156146 16.5232722,5.23255814 L16.5232722,5.23255814 L15.2214386,0.897009967 C15.2214386,0.84717608 15.1713681,0.797342193 15.1212976,0.797342193 C15.0712271,0.797342193 15.0211566,0.84717608 15.0211566,0.897009967 L13.719323,5.23255814 C14.1198872,5.53156146 14.3201693,5.98006645 14.3201693,6.47840532 C14.3201693,6.97674419 14.0698166,7.42524917 13.719323,7.72425249 L13.719323,7.72425249 C13.1685472,8.12292359 12.7679831,8.82059801 12.7679831,9.56810631 L12.7679831,11.013289 L7.16008463,7.77408638 L6.55923836,8.82059801 L12.8180536,12.4086379 L12.8180536,13.654485 L11.7165021,14.2524917 L5.45768688,10.6644518 L4.8067701,11.7607973 L10.4146685,15 L9.1629055,15.7475083 L9.1629055,15.7475083 C8.51198872,16.1461794 8.11142454,16.7940199 8.0112835,17.4916944 L8.0112835,17.4916944 C7.96121298,17.9401993 7.71086037,18.3887043 7.26022567,18.6378738 C6.80959097,18.8870432 6.30888575,18.8870432 5.85825106,18.7375415 L5.85825106,18.7375415 L2.7538787,22.0265781 C2.70380818,22.0265781 2.70380818,22.076412 2.70380818,22.1262458 C2.7538787,22.1262458 2.80394922,22.1262458 2.85401975,22.1262458 L7.31029619,21.0797342 C7.36036671,20.6312292 7.61071932,20.1827243 8.06135402,19.9335548 C8.51198872,19.6843854 9.01269394,19.6843854 9.46332863,19.833887 L9.46332863,19.833887 C10.1142454,20.1328904 10.8653032,20.0830565 11.51622,19.7342193 L12.7679831,18.986711 L12.7679831,25.4651163 L14.0197461,25.4651163 L14.0197461,18.2890365 L15.1212976,17.641196 L16.2228491,18.2890365 L16.2228491,25.4651163 L17.4746121,25.4651163 L17.4746121,18.986711 L18.7263752,19.7342193 C19.377292,20.1328904 20.1784203,20.1328904 20.7792666,19.833887 L20.7792666,19.833887 C21.2299013,19.6345515 21.7306065,19.6843854 22.1812412,19.9335548 C22.6318759,20.1827243 22.8822285,20.6312292 22.932299,21.0797342 L22.932299,21.0797342 L27.3385049,22.1262458 C27.3885755,22.1262458 27.438646,22.1262458 27.438646,22.076412 C27.438646,22.0265781 27.438646,21.9767442 27.3885755,21.9767442 L24.2842031,18.6877076 C23.8836389,18.8372093 23.3328632,18.8372093 22.932299,18.5880399 Z M12.7679831,17.5913621 L10.9153738,18.6378738 C10.4146685,18.9368771 9.71368124,18.7375415 9.41325811,18.2392027 C9.11283498,17.7408638 9.31311707,17.0431894 9.81382228,16.744186 L11.7165021,15.6478405 L12.8180536,16.2458472 L12.8180536,17.5913621 L12.7679831,17.5913621 Z M16.1727786,15.5980066 L15.0712271,16.1960133 L13.9696756,15.5980066 L13.9696756,14.3521595 L15.0712271,13.7043189 L16.1727786,14.3521595 L16.1727786,15.5980066 Z M16.1727786,11.7109635 L15.0712271,12.3089701 L13.9696756,11.6611296 L13.9696756,9.51827243 C13.9696756,8.92026578 14.4703808,8.42192691 15.0712271,8.42192691 C15.6720733,8.42192691 16.1727786,8.92026578 16.1727786,9.51827243 L16.1727786,11.7109635 Z M20.7792666,18.2392027 C20.4788434,18.7375415 19.8279267,18.9368771 19.2771509,18.6378738 L17.3744711,17.5415282 L17.3744711,16.2956811 L18.4760226,15.6976744 L20.3787024,16.7940199 C20.8794076,17.0930233 21.0796897,17.7408638 20.7792666,18.2392027 Z M79.2115656,2.34219269 L86.3215797,2.34219269 L86.3215797,27.7076412 L81.5148096,27.7076412 L81.5148096,11.6112957 L78.6607898,27.7574751 L75.4562764,27.7574751 L72.6523272,11.6112957 L72.6523272,27.7574751 L67.8956276,27.7574751 L67.8956276,2.34219269 L75.0056417,2.34219269 L77.1086037,14.551495 L79.2115656,2.34219269 Z M93.7820874,2.34219269 L89.22567,27.7076412 L94.3829337,27.7076412 L95.2341326,21.6777409 L99.1396333,21.6777409 L99.9908322,27.7076412 L105.198166,27.7076412 L100.641749,2.34219269 L93.7820874,2.34219269 Z M95.9351199,17.0930233 L97.2369535,8.12292359 L98.538787,17.0930233 L95.9351199,17.0930233 Z" id="Shape"></path>
                </g>
            </g>
        </g>
    </g>
</svg>